<mxfile host="app.diagrams.net" modified="2024-03-07T09:08:24.820Z" agent="Mozilla/5.0 (Windows NT 10.0; Win64; x64) AppleWebKit/537.36 (KHTML, like Gecko) Chrome/121.0.0.0 Safari/537.36 OPR/107.0.0.0" etag="DxxduvkOaBw0KjaDhxoc" version="24.0.1" type="device">
  <diagram name="Страница — 1" id="YP4bq2AtmFuDfUVV6vdi">
    <mxGraphModel dx="1922" dy="949" grid="1" gridSize="10" guides="1" tooltips="1" connect="1" arrows="1" fold="1" page="1" pageScale="1" pageWidth="827" pageHeight="1169" math="0" shadow="0">
      <root>
        <mxCell id="0" />
        <mxCell id="1" parent="0" />
        <mxCell id="QCt8GsDa-doQ-xlnei4u-1" value="Пользователь" style="shape=umlActor;verticalLabelPosition=bottom;verticalAlign=top;html=1;outlineConnect=0;" vertex="1" parent="1">
          <mxGeometry x="220" y="270" width="30" height="60" as="geometry" />
        </mxCell>
        <mxCell id="QCt8GsDa-doQ-xlnei4u-2" value="Авторизоваться" style="ellipse;whiteSpace=wrap;html=1;" vertex="1" parent="1">
          <mxGeometry x="180" y="120" width="110" height="50" as="geometry" />
        </mxCell>
        <mxCell id="QCt8GsDa-doQ-xlnei4u-3" value="" style="endArrow=none;html=1;rounded=0;" edge="1" parent="1" source="QCt8GsDa-doQ-xlnei4u-1" target="QCt8GsDa-doQ-xlnei4u-2">
          <mxGeometry width="50" height="50" relative="1" as="geometry">
            <mxPoint x="320" y="410" as="sourcePoint" />
            <mxPoint x="370" y="360" as="targetPoint" />
          </mxGeometry>
        </mxCell>
        <mxCell id="QCt8GsDa-doQ-xlnei4u-4" value="Сотрудник отдела&amp;nbsp;&lt;div&gt;кадров&lt;/div&gt;" style="shape=umlActor;verticalLabelPosition=bottom;verticalAlign=top;html=1;outlineConnect=0;" vertex="1" parent="1">
          <mxGeometry x="220" y="500" width="30" height="60" as="geometry" />
        </mxCell>
        <mxCell id="QCt8GsDa-doQ-xlnei4u-5" value="" style="endArrow=classic;html=1;rounded=0;" edge="1" parent="1" target="QCt8GsDa-doQ-xlnei4u-4">
          <mxGeometry width="50" height="50" relative="1" as="geometry">
            <mxPoint x="235" y="370" as="sourcePoint" />
            <mxPoint x="310" y="420" as="targetPoint" />
          </mxGeometry>
        </mxCell>
        <mxCell id="QCt8GsDa-doQ-xlnei4u-6" value="Управление сотрудниками" style="ellipse;whiteSpace=wrap;html=1;" vertex="1" parent="1">
          <mxGeometry x="414" y="280" width="110" height="50" as="geometry" />
        </mxCell>
        <mxCell id="QCt8GsDa-doQ-xlnei4u-7" value="Управление поощрениями" style="ellipse;whiteSpace=wrap;html=1;" vertex="1" parent="1">
          <mxGeometry x="414" y="370" width="110" height="50" as="geometry" />
        </mxCell>
        <mxCell id="QCt8GsDa-doQ-xlnei4u-8" value="Управление командировками" style="ellipse;whiteSpace=wrap;html=1;" vertex="1" parent="1">
          <mxGeometry x="414" y="460" width="110" height="50" as="geometry" />
        </mxCell>
        <mxCell id="QCt8GsDa-doQ-xlnei4u-9" value="Управление штатным расписанием" style="ellipse;whiteSpace=wrap;html=1;" vertex="1" parent="1">
          <mxGeometry x="414" y="550" width="110" height="50" as="geometry" />
        </mxCell>
        <mxCell id="QCt8GsDa-doQ-xlnei4u-10" value="Управление повышениями&lt;div&gt;квалификации&lt;/div&gt;" style="ellipse;whiteSpace=wrap;html=1;" vertex="1" parent="1">
          <mxGeometry x="414" y="640" width="110" height="50" as="geometry" />
        </mxCell>
        <mxCell id="QCt8GsDa-doQ-xlnei4u-11" value="Управление отпусками" style="ellipse;whiteSpace=wrap;html=1;" vertex="1" parent="1">
          <mxGeometry x="414" y="730" width="110" height="50" as="geometry" />
        </mxCell>
        <mxCell id="QCt8GsDa-doQ-xlnei4u-12" value="Добавить сотрудника в БД" style="ellipse;whiteSpace=wrap;html=1;" vertex="1" parent="1">
          <mxGeometry x="610" y="115" width="110" height="50" as="geometry" />
        </mxCell>
        <mxCell id="QCt8GsDa-doQ-xlnei4u-13" value="Удалить сотрудника из БД" style="ellipse;whiteSpace=wrap;html=1;" vertex="1" parent="1">
          <mxGeometry x="610" y="195" width="110" height="50" as="geometry" />
        </mxCell>
        <mxCell id="QCt8GsDa-doQ-xlnei4u-14" value="Поиск сотрудника в БД" style="ellipse;whiteSpace=wrap;html=1;" vertex="1" parent="1">
          <mxGeometry x="610" y="275" width="110" height="50" as="geometry" />
        </mxCell>
        <mxCell id="QCt8GsDa-doQ-xlnei4u-15" value="Запись информации в документ" style="ellipse;whiteSpace=wrap;html=1;" vertex="1" parent="1">
          <mxGeometry x="610" y="355" width="110" height="50" as="geometry" />
        </mxCell>
        <mxCell id="QCt8GsDa-doQ-xlnei4u-16" value="Вывод графика сотрудников по должностям" style="ellipse;whiteSpace=wrap;html=1;" vertex="1" parent="1">
          <mxGeometry x="610" y="435" width="110" height="50" as="geometry" />
        </mxCell>
        <mxCell id="QCt8GsDa-doQ-xlnei4u-17" value="" style="endArrow=none;html=1;rounded=0;" edge="1" parent="1" source="QCt8GsDa-doQ-xlnei4u-4" target="QCt8GsDa-doQ-xlnei4u-11">
          <mxGeometry width="50" height="50" relative="1" as="geometry">
            <mxPoint x="250" y="750" as="sourcePoint" />
            <mxPoint x="300" y="700" as="targetPoint" />
          </mxGeometry>
        </mxCell>
        <mxCell id="QCt8GsDa-doQ-xlnei4u-18" value="" style="endArrow=none;html=1;rounded=0;" edge="1" parent="1" source="QCt8GsDa-doQ-xlnei4u-4" target="QCt8GsDa-doQ-xlnei4u-10">
          <mxGeometry width="50" height="50" relative="1" as="geometry">
            <mxPoint x="220" y="740" as="sourcePoint" />
            <mxPoint x="270" y="690" as="targetPoint" />
          </mxGeometry>
        </mxCell>
        <mxCell id="QCt8GsDa-doQ-xlnei4u-19" value="" style="endArrow=none;html=1;rounded=0;" edge="1" parent="1" source="QCt8GsDa-doQ-xlnei4u-4" target="QCt8GsDa-doQ-xlnei4u-9">
          <mxGeometry width="50" height="50" relative="1" as="geometry">
            <mxPoint x="220" y="740" as="sourcePoint" />
            <mxPoint x="270" y="690" as="targetPoint" />
          </mxGeometry>
        </mxCell>
        <mxCell id="QCt8GsDa-doQ-xlnei4u-20" value="" style="endArrow=none;html=1;rounded=0;" edge="1" parent="1" source="QCt8GsDa-doQ-xlnei4u-4" target="QCt8GsDa-doQ-xlnei4u-8">
          <mxGeometry width="50" height="50" relative="1" as="geometry">
            <mxPoint x="200" y="710" as="sourcePoint" />
            <mxPoint x="250" y="660" as="targetPoint" />
          </mxGeometry>
        </mxCell>
        <mxCell id="QCt8GsDa-doQ-xlnei4u-21" value="" style="endArrow=none;html=1;rounded=0;" edge="1" parent="1" source="QCt8GsDa-doQ-xlnei4u-4" target="QCt8GsDa-doQ-xlnei4u-7">
          <mxGeometry width="50" height="50" relative="1" as="geometry">
            <mxPoint x="190" y="730" as="sourcePoint" />
            <mxPoint x="240" y="680" as="targetPoint" />
          </mxGeometry>
        </mxCell>
        <mxCell id="QCt8GsDa-doQ-xlnei4u-22" value="" style="endArrow=none;html=1;rounded=0;" edge="1" parent="1" source="QCt8GsDa-doQ-xlnei4u-4" target="QCt8GsDa-doQ-xlnei4u-6">
          <mxGeometry width="50" height="50" relative="1" as="geometry">
            <mxPoint x="250" y="710" as="sourcePoint" />
            <mxPoint x="300" y="660" as="targetPoint" />
          </mxGeometry>
        </mxCell>
        <mxCell id="QCt8GsDa-doQ-xlnei4u-23" value="" style="endArrow=none;dashed=1;html=1;rounded=0;" edge="1" parent="1" source="QCt8GsDa-doQ-xlnei4u-6" target="QCt8GsDa-doQ-xlnei4u-12">
          <mxGeometry width="50" height="50" relative="1" as="geometry">
            <mxPoint x="600" y="660" as="sourcePoint" />
            <mxPoint x="650" y="610" as="targetPoint" />
          </mxGeometry>
        </mxCell>
        <mxCell id="QCt8GsDa-doQ-xlnei4u-24" value="" style="endArrow=none;dashed=1;html=1;rounded=0;" edge="1" parent="1" source="QCt8GsDa-doQ-xlnei4u-6" target="QCt8GsDa-doQ-xlnei4u-13">
          <mxGeometry width="50" height="50" relative="1" as="geometry">
            <mxPoint x="630" y="570" as="sourcePoint" />
            <mxPoint x="680" y="520" as="targetPoint" />
          </mxGeometry>
        </mxCell>
        <mxCell id="QCt8GsDa-doQ-xlnei4u-25" value="" style="endArrow=none;dashed=1;html=1;rounded=0;" edge="1" parent="1" source="QCt8GsDa-doQ-xlnei4u-6" target="QCt8GsDa-doQ-xlnei4u-14">
          <mxGeometry width="50" height="50" relative="1" as="geometry">
            <mxPoint x="630" y="570" as="sourcePoint" />
            <mxPoint x="680" y="520" as="targetPoint" />
          </mxGeometry>
        </mxCell>
        <mxCell id="QCt8GsDa-doQ-xlnei4u-26" value="" style="endArrow=none;dashed=1;html=1;rounded=0;" edge="1" parent="1" source="QCt8GsDa-doQ-xlnei4u-6" target="QCt8GsDa-doQ-xlnei4u-15">
          <mxGeometry width="50" height="50" relative="1" as="geometry">
            <mxPoint x="650" y="650" as="sourcePoint" />
            <mxPoint x="700" y="600" as="targetPoint" />
          </mxGeometry>
        </mxCell>
        <mxCell id="QCt8GsDa-doQ-xlnei4u-27" value="" style="endArrow=none;dashed=1;html=1;rounded=0;" edge="1" parent="1" source="QCt8GsDa-doQ-xlnei4u-6" target="QCt8GsDa-doQ-xlnei4u-16">
          <mxGeometry width="50" height="50" relative="1" as="geometry">
            <mxPoint x="560" y="610" as="sourcePoint" />
            <mxPoint x="610" y="560" as="targetPoint" />
          </mxGeometry>
        </mxCell>
        <mxCell id="QCt8GsDa-doQ-xlnei4u-28" value="" style="triangle;whiteSpace=wrap;html=1;rotation=-140;" vertex="1" parent="1">
          <mxGeometry x="495" y="325" width="7.5" height="10" as="geometry" />
        </mxCell>
        <mxCell id="QCt8GsDa-doQ-xlnei4u-30" value="" style="triangle;whiteSpace=wrap;html=1;rotation=-146;" vertex="1" parent="1">
          <mxGeometry x="511" y="318" width="7.5" height="10" as="geometry" />
        </mxCell>
        <mxCell id="QCt8GsDa-doQ-xlnei4u-31" value="" style="triangle;whiteSpace=wrap;html=1;rotation=-180;" vertex="1" parent="1">
          <mxGeometry x="524" y="298" width="7.5" height="10" as="geometry" />
        </mxCell>
        <mxCell id="QCt8GsDa-doQ-xlnei4u-32" value="" style="triangle;whiteSpace=wrap;html=1;rotation=-215.2;" vertex="1" parent="1">
          <mxGeometry x="509" y="281" width="7.5" height="10" as="geometry" />
        </mxCell>
        <mxCell id="QCt8GsDa-doQ-xlnei4u-33" value="" style="triangle;whiteSpace=wrap;html=1;rotation=127.19999999999999;" vertex="1" parent="1">
          <mxGeometry x="494" y="275" width="7.5" height="10" as="geometry" />
        </mxCell>
        <mxCell id="QCt8GsDa-doQ-xlnei4u-34" value="Добавление в БД" style="ellipse;whiteSpace=wrap;html=1;" vertex="1" parent="1">
          <mxGeometry x="700" y="550" width="110" height="50" as="geometry" />
        </mxCell>
        <mxCell id="QCt8GsDa-doQ-xlnei4u-35" value="Удаление из БД" style="ellipse;whiteSpace=wrap;html=1;" vertex="1" parent="1">
          <mxGeometry x="750" y="640" width="110" height="50" as="geometry" />
        </mxCell>
        <mxCell id="QCt8GsDa-doQ-xlnei4u-36" value="Поиск по БД" style="ellipse;whiteSpace=wrap;html=1;" vertex="1" parent="1">
          <mxGeometry x="720" y="750" width="110" height="50" as="geometry" />
        </mxCell>
        <mxCell id="QCt8GsDa-doQ-xlnei4u-37" value="Запись в документ" style="ellipse;whiteSpace=wrap;html=1;" vertex="1" parent="1">
          <mxGeometry x="630" y="830" width="110" height="50" as="geometry" />
        </mxCell>
        <mxCell id="QCt8GsDa-doQ-xlnei4u-40" value="" style="endArrow=none;dashed=1;html=1;dashPattern=1 3;strokeWidth=2;rounded=0;" edge="1" parent="1" source="QCt8GsDa-doQ-xlnei4u-7" target="QCt8GsDa-doQ-xlnei4u-34">
          <mxGeometry width="50" height="50" relative="1" as="geometry">
            <mxPoint x="550" y="600" as="sourcePoint" />
            <mxPoint x="600" y="550" as="targetPoint" />
          </mxGeometry>
        </mxCell>
        <mxCell id="QCt8GsDa-doQ-xlnei4u-41" value="" style="endArrow=none;dashed=1;html=1;rounded=0;" edge="1" parent="1" source="QCt8GsDa-doQ-xlnei4u-8" target="QCt8GsDa-doQ-xlnei4u-34">
          <mxGeometry width="50" height="50" relative="1" as="geometry">
            <mxPoint x="520" y="670" as="sourcePoint" />
            <mxPoint x="570" y="620" as="targetPoint" />
          </mxGeometry>
        </mxCell>
        <mxCell id="QCt8GsDa-doQ-xlnei4u-42" value="" style="endArrow=none;dashed=1;html=1;rounded=0;" edge="1" parent="1" source="QCt8GsDa-doQ-xlnei4u-9" target="QCt8GsDa-doQ-xlnei4u-35">
          <mxGeometry width="50" height="50" relative="1" as="geometry">
            <mxPoint x="540" y="670" as="sourcePoint" />
            <mxPoint x="590" y="620" as="targetPoint" />
          </mxGeometry>
        </mxCell>
        <mxCell id="QCt8GsDa-doQ-xlnei4u-45" value="" style="endArrow=none;dashed=1;html=1;rounded=0;" edge="1" parent="1" source="QCt8GsDa-doQ-xlnei4u-9" target="QCt8GsDa-doQ-xlnei4u-34">
          <mxGeometry width="50" height="50" relative="1" as="geometry">
            <mxPoint x="530" y="890" as="sourcePoint" />
            <mxPoint x="580" y="840" as="targetPoint" />
          </mxGeometry>
        </mxCell>
        <mxCell id="QCt8GsDa-doQ-xlnei4u-46" value="" style="endArrow=none;dashed=1;html=1;rounded=0;" edge="1" parent="1" source="QCt8GsDa-doQ-xlnei4u-10" target="QCt8GsDa-doQ-xlnei4u-34">
          <mxGeometry width="50" height="50" relative="1" as="geometry">
            <mxPoint x="490" y="910" as="sourcePoint" />
            <mxPoint x="540" y="860" as="targetPoint" />
          </mxGeometry>
        </mxCell>
        <mxCell id="QCt8GsDa-doQ-xlnei4u-47" value="" style="endArrow=none;dashed=1;html=1;rounded=0;" edge="1" parent="1" source="QCt8GsDa-doQ-xlnei4u-11" target="QCt8GsDa-doQ-xlnei4u-34">
          <mxGeometry width="50" height="50" relative="1" as="geometry">
            <mxPoint x="500" y="960" as="sourcePoint" />
            <mxPoint x="550" y="910" as="targetPoint" />
          </mxGeometry>
        </mxCell>
        <mxCell id="QCt8GsDa-doQ-xlnei4u-48" value="" style="endArrow=none;dashed=1;html=1;rounded=0;" edge="1" parent="1" source="QCt8GsDa-doQ-xlnei4u-8" target="QCt8GsDa-doQ-xlnei4u-35">
          <mxGeometry width="50" height="50" relative="1" as="geometry">
            <mxPoint x="460" y="880" as="sourcePoint" />
            <mxPoint x="510" y="830" as="targetPoint" />
          </mxGeometry>
        </mxCell>
        <mxCell id="QCt8GsDa-doQ-xlnei4u-49" value="" style="endArrow=none;dashed=1;html=1;rounded=0;" edge="1" parent="1" source="QCt8GsDa-doQ-xlnei4u-10" target="QCt8GsDa-doQ-xlnei4u-35">
          <mxGeometry width="50" height="50" relative="1" as="geometry">
            <mxPoint x="490" y="880" as="sourcePoint" />
            <mxPoint x="540" y="830" as="targetPoint" />
          </mxGeometry>
        </mxCell>
        <mxCell id="QCt8GsDa-doQ-xlnei4u-50" value="" style="endArrow=none;dashed=1;html=1;rounded=0;" edge="1" parent="1" source="QCt8GsDa-doQ-xlnei4u-11" target="QCt8GsDa-doQ-xlnei4u-35">
          <mxGeometry width="50" height="50" relative="1" as="geometry">
            <mxPoint x="390" y="890" as="sourcePoint" />
            <mxPoint x="440" y="840" as="targetPoint" />
          </mxGeometry>
        </mxCell>
        <mxCell id="QCt8GsDa-doQ-xlnei4u-51" value="" style="endArrow=none;dashed=1;html=1;rounded=0;" edge="1" parent="1" source="QCt8GsDa-doQ-xlnei4u-7" target="QCt8GsDa-doQ-xlnei4u-36">
          <mxGeometry width="50" height="50" relative="1" as="geometry">
            <mxPoint x="340" y="910" as="sourcePoint" />
            <mxPoint x="390" y="860" as="targetPoint" />
          </mxGeometry>
        </mxCell>
        <mxCell id="QCt8GsDa-doQ-xlnei4u-52" value="" style="endArrow=none;dashed=1;html=1;rounded=0;" edge="1" parent="1" source="QCt8GsDa-doQ-xlnei4u-8" target="QCt8GsDa-doQ-xlnei4u-36">
          <mxGeometry width="50" height="50" relative="1" as="geometry">
            <mxPoint x="320" y="850" as="sourcePoint" />
            <mxPoint x="370" y="800" as="targetPoint" />
          </mxGeometry>
        </mxCell>
        <mxCell id="QCt8GsDa-doQ-xlnei4u-53" value="" style="endArrow=none;dashed=1;html=1;rounded=0;" edge="1" parent="1" source="QCt8GsDa-doQ-xlnei4u-9" target="QCt8GsDa-doQ-xlnei4u-36">
          <mxGeometry width="50" height="50" relative="1" as="geometry">
            <mxPoint x="340" y="890" as="sourcePoint" />
            <mxPoint x="390" y="840" as="targetPoint" />
          </mxGeometry>
        </mxCell>
        <mxCell id="QCt8GsDa-doQ-xlnei4u-54" value="" style="endArrow=none;dashed=1;html=1;rounded=0;" edge="1" parent="1" source="QCt8GsDa-doQ-xlnei4u-10" target="QCt8GsDa-doQ-xlnei4u-36">
          <mxGeometry width="50" height="50" relative="1" as="geometry">
            <mxPoint x="210" y="910" as="sourcePoint" />
            <mxPoint x="260" y="860" as="targetPoint" />
          </mxGeometry>
        </mxCell>
        <mxCell id="QCt8GsDa-doQ-xlnei4u-55" value="" style="endArrow=none;dashed=1;html=1;rounded=0;" edge="1" parent="1" source="QCt8GsDa-doQ-xlnei4u-11" target="QCt8GsDa-doQ-xlnei4u-36">
          <mxGeometry width="50" height="50" relative="1" as="geometry">
            <mxPoint x="280" y="830" as="sourcePoint" />
            <mxPoint x="330" y="780" as="targetPoint" />
          </mxGeometry>
        </mxCell>
        <mxCell id="QCt8GsDa-doQ-xlnei4u-56" value="" style="endArrow=none;dashed=1;html=1;rounded=0;" edge="1" parent="1" source="QCt8GsDa-doQ-xlnei4u-7" target="QCt8GsDa-doQ-xlnei4u-37">
          <mxGeometry width="50" height="50" relative="1" as="geometry">
            <mxPoint x="160" y="890" as="sourcePoint" />
            <mxPoint x="210" y="840" as="targetPoint" />
          </mxGeometry>
        </mxCell>
        <mxCell id="QCt8GsDa-doQ-xlnei4u-57" value="" style="endArrow=none;dashed=1;html=1;rounded=0;" edge="1" parent="1" source="QCt8GsDa-doQ-xlnei4u-8" target="QCt8GsDa-doQ-xlnei4u-37">
          <mxGeometry width="50" height="50" relative="1" as="geometry">
            <mxPoint x="150" y="870" as="sourcePoint" />
            <mxPoint x="200" y="820" as="targetPoint" />
          </mxGeometry>
        </mxCell>
        <mxCell id="QCt8GsDa-doQ-xlnei4u-58" value="" style="endArrow=none;dashed=1;html=1;rounded=0;" edge="1" parent="1" source="QCt8GsDa-doQ-xlnei4u-9" target="QCt8GsDa-doQ-xlnei4u-37">
          <mxGeometry width="50" height="50" relative="1" as="geometry">
            <mxPoint x="270" y="960" as="sourcePoint" />
            <mxPoint x="320" y="910" as="targetPoint" />
          </mxGeometry>
        </mxCell>
        <mxCell id="QCt8GsDa-doQ-xlnei4u-59" value="" style="endArrow=none;dashed=1;html=1;rounded=0;" edge="1" parent="1" source="QCt8GsDa-doQ-xlnei4u-10" target="QCt8GsDa-doQ-xlnei4u-37">
          <mxGeometry width="50" height="50" relative="1" as="geometry">
            <mxPoint x="280" y="910" as="sourcePoint" />
            <mxPoint x="330" y="860" as="targetPoint" />
          </mxGeometry>
        </mxCell>
        <mxCell id="QCt8GsDa-doQ-xlnei4u-60" value="" style="endArrow=none;dashed=1;html=1;rounded=0;" edge="1" parent="1" source="QCt8GsDa-doQ-xlnei4u-11" target="QCt8GsDa-doQ-xlnei4u-37">
          <mxGeometry width="50" height="50" relative="1" as="geometry">
            <mxPoint x="210" y="860" as="sourcePoint" />
            <mxPoint x="260" y="810" as="targetPoint" />
          </mxGeometry>
        </mxCell>
      </root>
    </mxGraphModel>
  </diagram>
</mxfile>
